<svg width="100" height="100" viewBox="0 0 100 100" fill="none" xmlns="http://www.w3.org/2000/svg">
<rect width="100" height="100" rx="11.2" fill="#010101"/>
<path d="M13.3409 64H7.94091L17.7727 36.0727H24.0182L33.8636 64H28.4636L21.0045 41.8H20.7864L13.3409 64ZM13.5182 53.05H28.2455V57.1136H13.5182V53.05ZM37.542 64V36.0727H48.0148C50.1602 36.0727 51.9602 36.4727 53.4148 37.2727C54.8784 38.0727 55.983 39.1727 56.7284 40.5727C57.483 41.9636 57.8602 43.5455 57.8602 45.3182C57.8602 47.1091 57.483 48.7 56.7284 50.0909C55.9739 51.4818 54.8602 52.5773 53.3875 53.3773C51.9148 54.1682 50.1011 54.5636 47.9466 54.5636H41.0057V50.4045H47.2648C48.5193 50.4045 49.5466 50.1864 50.3466 49.75C51.1466 49.3136 51.7375 48.7136 52.1193 47.95C52.5102 47.1864 52.7057 46.3091 52.7057 45.3182C52.7057 44.3273 52.5102 43.4545 52.1193 42.7C51.7375 41.9455 51.142 41.3591 50.333 40.9409C49.533 40.5136 48.5011 40.3 47.2375 40.3H42.6011V64H37.542ZM62.2545 64V36.0727H67.3136V59.7591H79.6136V64H62.2545Z" fill="white"/>
<path d="M86.8273 64.3C86 64.3 85.2909 64.0091 84.7 63.4273C84.1091 62.8455 83.8182 62.1364 83.8273 61.3C83.8182 60.4818 84.1091 59.7818 84.7 59.2C85.2909 58.6182 86 58.3273 86.8273 58.3273C87.6273 58.3273 88.3227 58.6182 88.9136 59.2C89.5136 59.7818 89.8182 60.4818 89.8273 61.3C89.8182 61.8545 89.6727 62.3591 89.3909 62.8136C89.1182 63.2682 88.7545 63.6318 88.3 63.9045C87.8545 64.1682 87.3636 64.3 86.8273 64.3Z" fill="var(--primary-color)"/>
</svg>
