<svg width="80" height="67" viewBox="0 0 80 67" fill="none" xmlns="http://www.w3.org/2000/svg">
<path d="M80 67L80 22C80 9.84975 70.1503 6.45335e-06 58 5.83509e-06L2.51581e-06 2.88378e-06L8.26087e-07 45C3.69852e-07 57.1503 9.84974 67 22 67L80 67Z" fill="#FBF8F8"/>
<mask id="mask0_2548_2216" style="mask-type:alpha" maskUnits="userSpaceOnUse" x="23" y="17" width="34" height="34">
<rect x="23" y="17" width="34" height="34" fill="#D9D9D9"/>
</mask>
<g mask="url(#mask0_2548_2216)">
<path d="M36.8125 46.75C35.6083 46.75 34.5694 46.3309 33.6958 45.4927C32.8222 44.6545 32.3264 43.6451 32.2083 42.4646C30.7917 42.2757 29.6111 41.65 28.6667 40.5875C27.7222 39.525 27.25 38.2736 27.25 36.8333C27.25 36.3375 27.3149 35.8476 27.4448 35.3635C27.5747 34.8795 27.7694 34.425 28.0292 34C27.7694 33.575 27.5747 33.1264 27.4448 32.6542C27.3149 32.1819 27.25 31.6861 27.25 31.1667C27.25 29.7264 27.7222 28.4809 28.6667 27.4302C29.6111 26.3795 30.7799 25.7597 32.1729 25.5708C32.2438 24.3667 32.7278 23.3455 33.625 22.5073C34.5222 21.6691 35.5847 21.25 36.8125 21.25C37.4264 21.25 37.999 21.3681 38.5302 21.6042C39.0615 21.8403 39.5514 22.159 40 22.5604C40.425 22.159 40.909 21.8403 41.4521 21.6042C41.9951 21.3681 42.5736 21.25 43.1875 21.25C44.4153 21.25 45.4719 21.6632 46.3573 22.4896C47.2427 23.316 47.7208 24.3313 47.7917 25.5354C49.1847 25.7243 50.3594 26.35 51.3156 27.4125C52.2719 28.475 52.75 29.7264 52.75 31.1667C52.75 31.6861 52.6851 32.1819 52.5552 32.6542C52.4253 33.1264 52.2306 33.575 51.9708 34C52.2306 34.425 52.4253 34.8795 52.5552 35.3635C52.6851 35.8476 52.75 36.3375 52.75 36.8333C52.75 38.2972 52.2719 39.5545 51.3156 40.6052C50.3594 41.6559 49.1729 42.2757 47.7562 42.4646C47.6382 43.6451 47.1483 44.6545 46.2865 45.4927C45.4247 46.3309 44.3917 46.75 43.1875 46.75C42.5972 46.75 42.0247 46.6378 41.4698 46.4135C40.9149 46.1892 40.425 45.8764 40 45.475C39.5514 45.8764 39.0556 46.1892 38.5125 46.4135C37.9694 46.6378 37.4028 46.75 36.8125 46.75ZM41.4167 25.8542V42.1458C41.4167 42.6417 41.5878 43.0608 41.9302 43.4031C42.2726 43.7455 42.6917 43.9167 43.1875 43.9167C43.6597 43.9167 44.067 43.7278 44.4094 43.35C44.7517 42.9722 44.9347 42.5472 44.9583 42.075C44.4625 41.8861 44.008 41.6323 43.5948 41.3135C43.1816 40.9948 42.8097 40.6111 42.4792 40.1625C42.2431 39.8319 42.1545 39.4778 42.2135 39.1C42.2726 38.7222 42.4674 38.4153 42.7979 38.1792C43.1285 37.9431 43.4826 37.8545 43.8604 37.9135C44.2382 37.9726 44.5451 38.1674 44.7812 38.4979C45.041 38.8757 45.3715 39.1649 45.7729 39.3656C46.1743 39.5663 46.6111 39.6667 47.0833 39.6667C47.8625 39.6667 48.5295 39.3892 49.0844 38.8344C49.6392 38.2795 49.9167 37.6125 49.9167 36.8333C49.9167 36.7153 49.9108 36.5972 49.899 36.4792C49.8872 36.3611 49.8576 36.2431 49.8104 36.125C49.409 36.3611 48.9781 36.5382 48.5177 36.6562C48.0573 36.7743 47.5792 36.8333 47.0833 36.8333C46.6819 36.8333 46.3455 36.6976 46.074 36.426C45.8024 36.1545 45.6667 35.8181 45.6667 35.4167C45.6667 35.0153 45.8024 34.6788 46.074 34.4073C46.3455 34.1358 46.6819 34 47.0833 34C47.8625 34 48.5295 33.7226 49.0844 33.1677C49.6392 32.6128 49.9167 31.9458 49.9167 31.1667C49.9167 30.3875 49.6392 29.7264 49.0844 29.1833C48.5295 28.6403 47.8625 28.3569 47.0833 28.3333C46.8236 28.7583 46.4872 29.1302 46.074 29.449C45.6608 29.7677 45.2062 30.0215 44.7104 30.2104C44.3326 30.3521 43.9667 30.3403 43.6125 30.175C43.2583 30.0097 43.0222 29.7382 42.9042 29.3604C42.7861 28.9826 42.8038 28.6167 42.9573 28.2625C43.1108 27.9083 43.3764 27.6722 43.7542 27.5542C44.1083 27.4361 44.3976 27.2236 44.6219 26.9167C44.8462 26.6097 44.9583 26.2556 44.9583 25.8542C44.9583 25.3583 44.7872 24.9392 44.4448 24.5969C44.1024 24.2545 43.6833 24.0833 43.1875 24.0833C42.6917 24.0833 42.2726 24.2545 41.9302 24.5969C41.5878 24.9392 41.4167 25.3583 41.4167 25.8542ZM38.5833 42.1458V25.8542C38.5833 25.3583 38.4122 24.9392 38.0698 24.5969C37.7274 24.2545 37.3083 24.0833 36.8125 24.0833C36.3167 24.0833 35.8976 24.2545 35.5552 24.5969C35.2128 24.9392 35.0417 25.3583 35.0417 25.8542C35.0417 26.2319 35.1479 26.5802 35.3604 26.899C35.5729 27.2177 35.8563 27.4361 36.2104 27.5542C36.5882 27.6722 36.8597 27.9083 37.025 28.2625C37.1903 28.6167 37.2139 28.9826 37.0958 29.3604C36.9542 29.7382 36.7063 30.0097 36.3521 30.175C35.9979 30.3403 35.6319 30.3521 35.2542 30.2104C34.7583 30.0215 34.3038 29.7677 33.8906 29.449C33.4774 29.1302 33.141 28.7583 32.8813 28.3333C32.1257 28.3569 31.4705 28.6462 30.9156 29.201C30.3608 29.7559 30.0833 30.4111 30.0833 31.1667C30.0833 31.9458 30.3608 32.6128 30.9156 33.1677C31.4705 33.7226 32.1375 34 32.9167 34C33.3181 34 33.6545 34.1358 33.926 34.4073C34.1976 34.6788 34.3333 35.0153 34.3333 35.4167C34.3333 35.8181 34.1976 36.1545 33.926 36.426C33.6545 36.6976 33.3181 36.8333 32.9167 36.8333C32.4208 36.8333 31.9427 36.7743 31.4823 36.6562C31.0219 36.5382 30.591 36.3611 30.1896 36.125C30.1424 36.2431 30.1128 36.3611 30.101 36.4792C30.0892 36.5972 30.0833 36.7153 30.0833 36.8333C30.0833 37.6125 30.3608 38.2795 30.9156 38.8344C31.4705 39.3892 32.1375 39.6667 32.9167 39.6667C33.3889 39.6667 33.8257 39.5663 34.2271 39.3656C34.6285 39.1649 34.959 38.8757 35.2187 38.4979C35.4549 38.1674 35.7618 37.9726 36.1396 37.9135C36.5174 37.8545 36.8715 37.9431 37.2021 38.1792C37.5326 38.4153 37.7274 38.7222 37.7865 39.1C37.8455 39.4778 37.7569 39.8319 37.5208 40.1625C37.1903 40.6111 36.8125 41.0007 36.3875 41.3312C35.9625 41.6618 35.5021 41.9215 35.0062 42.1104C35.0299 42.5826 35.2187 43.0017 35.5729 43.3677C35.9271 43.7337 36.3403 43.9167 36.8125 43.9167C37.3083 43.9167 37.7274 43.7455 38.0698 43.4031C38.4122 43.0608 38.5833 42.6417 38.5833 42.1458Z" fill="#1C1B1F"/>
</g>
</svg>
