<svg width="80" height="67" viewBox="0 0 80 67" fill="none" xmlns="http://www.w3.org/2000/svg">
<path d="M80 67L80 22C80 9.84975 70.1503 6.45335e-06 58 5.83509e-06L2.51581e-06 2.88378e-06L8.26087e-07 45C3.69852e-07 57.1503 9.84974 67 22 67L80 67Z" fill="#FBF8F8"/>
<mask id="mask0_2550_2233" style="mask-type:alpha" maskUnits="userSpaceOnUse" x="23" y="17" width="34" height="34">
<rect x="23" y="17" width="34" height="34" fill="#D9D9D9"/>
</mask>
<g mask="url(#mask0_2550_2233)">
<path d="M40.3188 34.709L43.5417 32.7611L46.7646 34.709L45.9146 31.0257L48.7479 28.5819L45.0292 28.2632L43.5417 24.7923L42.0542 28.2632L38.3354 28.5819L41.1688 31.0257L40.3188 34.709ZM40.9917 43.9173H48.925C48.7597 44.5312 48.4764 45.027 48.075 45.4048C47.6736 45.7826 47.1542 46.0187 46.5167 46.1132L31.075 47.9902C30.2958 48.1083 29.5934 47.9253 28.9677 47.4413C28.342 46.9573 27.982 46.3257 27.8875 45.5465L26.0104 30.0694C25.916 29.2902 26.1049 28.5937 26.5771 27.9798C27.0493 27.3659 27.675 27.0118 28.4542 26.9173L30.0833 26.7048V29.5382L28.8083 29.7152L30.7208 45.1923L40.9917 43.9173ZM35.75 41.084C34.9708 41.084 34.3038 40.8066 33.749 40.2517C33.1941 39.6968 32.9167 39.0298 32.9167 38.2507V22.6673C32.9167 21.8882 33.1941 21.2211 33.749 20.6663C34.3038 20.1114 34.9708 19.834 35.75 19.834H51.3333C52.1125 19.834 52.7795 20.1114 53.3344 20.6663C53.8892 21.2211 54.1667 21.8882 54.1667 22.6673V38.2507C54.1667 39.0298 53.8892 39.6968 53.3344 40.2517C52.7795 40.8066 52.1125 41.084 51.3333 41.084H35.75ZM35.75 38.2507H51.3333V22.6673H35.75V38.2507Z" fill="#1C1B1F"/>
</g>
</svg>
